<svg aria-hidden="true" style="position: absolute; width: 0; height: 0; overflow: hidden;" version="1.1" xmlns="http://www.w3.org/2000/svg" xmlns:xlink="http://www.w3.org/1999/xlink">
<defs>

<symbol id="icon-search" viewBox="0 0 32 32">
<path d="M20 0.005c-6.627 0-12 5.373-12 12 0 2.026 0.507 3.933 1.395 5.608l-8.344 8.342 0.007 0.006c-0.652 0.641-1.058 1.529-1.058 2.516 0 1.949 1.58 3.529 3.529 3.529 0.985 0 1.874-0.406 2.515-1.059l-0.002-0.002 8.341-8.34c1.676 0.891 3.586 1.4 5.617 1.4 6.627 0 12-5.373 12-12s-5.373-12-12-12zM4.795 29.697c-0.322 0.334-0.768 0.543-1.266 0.543-0.975 0-1.765-0.789-1.765-1.764 0-0.498 0.21-0.943 0.543-1.266l-0.009-0.008 8.066-8.066c0.705 0.951 1.545 1.791 2.494 2.498l-8.063 8.063zM20 22.006c-5.522 0-10-4.479-10-10s4.478-10 10-10c5.521 0 10 4.478 10 10s-4.479 10-10 10zM20 5.005c0.275 0 0.5 0.224 0.5 0.5s-0.225 0.5-0.5 0.5c-3.314 0-6 2.687-6 6 0 0.276-0.224 0.5-0.5 0.5s-0.5-0.224-0.5-0.5c0-3.866 3.133-7 7-7z"></path>
</symbol>

<symbol id="icon-truck" viewBox="0 0 32 32">
<path d="M24.832 11.445c-0.186-0.278-0.498-0.445-0.832-0.445h-1c-0.553 0-1 0.447-1 1v6c0 0.553 0.447 1 1 1h4c0.553 0 1-0.447 1-1v-1.5c0-0.197-0.059-0.391-0.168-0.555l-3-4.5zM27 18h-4v-6h1l3 4.5v1.5zM31.496 15.336l-4-6c-0.558-0.837-1.492-1.336-2.496-1.336h-4v-2c0-1.654-1.346-3-3-3h-15c-1.654 0-3 1.346-3 3v11c0 1.654 1.346 3 3 3v0 3c0 1.654 1.346 3 3 3h1.142c0.447 1.721 2 3 3.859 3 1.857 0 3.41-1.279 3.857-3h5.282c0.447 1.721 2 3 3.859 3 1.857 0 3.41-1.279 3.857-3h1.144c1.654 0 3-1.346 3-3v-6c0-0.594-0.174-1.17-0.504-1.664zM3 18c-0.552 0-1-0.447-1-1v-11c0-0.553 0.448-1 1-1h15c0.553 0 1 0.447 1 1v11c0 0.553-0.447 1-1 1h-15zM11.001 27c-1.105 0-2-0.896-2-2s0.895-2 2-2c1.104 0 2 0.896 2 2s-0.897 2-2 2zM24 27c-1.105 0-2-0.896-2-2s0.895-2 2-2c1.104 0 2 0.896 2 2s-0.896 2-2 2zM30 23c0 0.553-0.447 1-1 1h-1.143c-0.447-1.721-2-3-3.857-3-1.859 0-3.412 1.279-3.859 3h-5.282c-0.447-1.721-2-3-3.857-3-1.859 0-3.412 1.279-3.859 3h-1.143c-0.552 0-1-0.447-1-1v-3h13c1.654 0 3-1.346 3-3v-7h4c0.334 0 0.646 0.167 0.832 0.445l4 6c0.109 0.164 0.168 0.358 0.168 0.555v6z"></path>
</symbol>

<symbol id="icon-phone" viewBox="0 0 20 20">
<path d="M11.229 11.229c-1.583 1.582-3.417 3.096-4.142 2.371-1.037-1.037-1.677-1.941-3.965-0.102-2.287 1.838-0.53 3.064 0.475 4.068 1.16 1.16 5.484 0.062 9.758-4.211 4.273-4.274 5.368-8.598 4.207-9.758-1.005-1.006-2.225-2.762-4.063-0.475s-0.936 2.927 0.103 3.965c0.722 0.725-0.791 2.559-2.373 4.142z"></path>
</symbol>

<symbol id="icon-loop2" viewBox="0 0 32 32">
<path d="M27.802 5.197c-2.925-3.194-7.13-5.197-11.803-5.197-8.837 0-16 7.163-16 16h3c0-7.18 5.82-13 13-13 3.844 0 7.298 1.669 9.678 4.322l-4.678 4.678h11v-11l-4.198 4.197z"></path>
<path d="M29 16c0 7.18-5.82 13-13 13-3.844 0-7.298-1.669-9.678-4.322l4.678-4.678h-11v11l4.197-4.197c2.925 3.194 7.13 5.197 11.803 5.197 8.837 0 16-7.163 16-16h-3z"></path>
</symbol>

<symbol id="icon-basket" viewBox="0 0 32 32">
<path d="M29 14h-26c-0.553 0-1-0.447-1-1s0.447-1 1-1h2l6-11c0-0.553 0.447-1 1-1h2c0.553 0 1 0.447 1 1l-6 11h14l-6-11c0-0.553 0.447-1 1-1h3c0.553 0 1 0.447 1 1l5 11h2c0.553 0 1 0.447 1 1s-0.447 1-1 1zM3 16h26c0.553 0 1 0.447 1 1l-2 14c0 0.553-0.447 1-1 1h-22c-0.553 0-1-0.447-1-1l-2-14c0-0.553 0.447-1 1-1zM22 28h2c0.553 0 1-0.447 1-1l1-6c0-0.553-0.447-1-1-1h-2c-0.553 0-1 0.447-1 1l-1 6c0 0.553 0.447 1 1 1zM14 27c0 0.553 0.447 1 1 1h2c0.553 0 1-0.447 1-1v-6c0-0.553-0.447-1-1-1h-2c-0.553 0-1 0.447-1 1v6zM7 27c0 0.553 0.447 1 1 1h2c0.553 0 1-0.447 1-1l-1-6c0-0.553-0.447-1-1-1h-2c-0.553 0-1 0.447-1 1l1 6z"></path>
</symbol>


<symbol id="icon-calendar" viewBox="0 0 32 32">
<path d="M29.334 3h-4.334v-2c0-0.553-0.447-1-1-1s-1 0.447-1 1v2h-6v-2c0-0.553-0.448-1-1-1s-1 0.447-1 1v2h-6v-2c0-0.553-0.448-1-1-1s-1 0.447-1 1v2h-4.333c-1.473 0-2.667 1.193-2.667 2.666v23.667c0 1.473 1.194 2.667 2.667 2.667h26.667c1.473 0 2.666-1.194 2.666-2.667v-23.667c0-1.473-1.193-2.666-2.666-2.666zM30 29.333c0 0.368-0.299 0.667-0.666 0.667h-26.667c-0.368 0-0.667-0.299-0.667-0.667v-23.667c0-0.367 0.299-0.666 0.667-0.666h4.333v2c0 0.553 0.448 1 1 1s1-0.447 1-1v-2h6v2c0 0.553 0.448 1 1 1s1-0.447 1-1v-2h6v2c0 0.553 0.447 1 1 1s1-0.447 1-1v-2h4.334c0.367 0 0.666 0.299 0.666 0.666v23.667zM7 12h4v3h-4zM7 17h4v3h-4zM7 22h4v3h-4zM14 22h4v3h-4zM14 17h4v3h-4zM14 12h4v3h-4zM21 22h4v3h-4zM21 17h4v3h-4zM21 12h4v3h-4z"></path>
</symbol>

<symbol id="icon-user" viewBox="0 0 32 32">
<path d="M31.11 28.336c-0.201-0.133-3.848-2.525-9.273-3.699 1.99-2.521 3.268-5.912 3.811-8.169 0.754-3.128 0.461-9.248-2.543-13.062-1.756-2.229-4.213-3.406-7.105-3.406s-5.349 1.178-7.104 3.406c-3.004 3.813-3.296 9.933-2.543 13.061 0.543 2.257 1.82 5.648 3.811 8.169-5.425 1.174-9.072 3.566-9.272 3.699-0.733 0.488-1.061 1.4-0.805 2.242 0.254 0.845 1.033 1.423 1.913 1.423h28c0.881 0 1.658-0.578 1.914-1.422 0.257-0.842-0.071-1.754-0.804-2.242zM20.267 23.398l-0.326 0.414c-2.385 2.74-5.495 2.74-7.879 0l-0.327-0.414c-2.785-3.529-4.167-8.197-3.572-12.65 0.545-4.279 2.997-8.748 7.837-8.748s7.293 4.47 7.838 8.749c0.593 4.455-0.784 9.118-3.571 12.649zM2 30c0.138-0.092 3.526-2.314 8.586-3.408l2.484-0.537c0.887 0.582 1.86 0.945 2.93 0.945 1.071 0 2.043-0.363 2.93-0.945l2.484 0.537c5.020 1.086 8.396 3.283 8.586 3.408h-28z"></path>
</symbol>

<symbol id="icon-paper-plane" viewBox="0 0 20 20">
<path d="M18.64 2.634c-0.344 0.121-17.321 6.104-17.656 6.222-0.284 0.1-0.347 0.345-0.010 0.479 0.401 0.161 3.796 1.521 3.796 1.521v0l2.25 0.901c0 0 10.838-7.958 10.984-8.066 0.148-0.108 0.318 0.095 0.211 0.211s-7.871 8.513-7.871 8.513v0.002l-0.452 0.503 0.599 0.322c0 0 4.65 2.504 4.982 2.682 0.291 0.156 0.668 0.027 0.752-0.334 0.099-0.426 2.845-12.261 2.906-12.525 0.079-0.343-0.148-0.552-0.491-0.431zM7 17.162c0 0.246 0.139 0.315 0.331 0.141 0.251-0.229 2.85-2.561 2.85-2.561l-3.181-1.644v4.064z"></path>
</symbol>


<symbol id="icon-instagram" viewBox="0 0 32 32">
<path d="M16 2.881c4.275 0 4.781 0.019 6.462 0.094 1.563 0.069 2.406 0.331 2.969 0.55 0.744 0.288 1.281 0.638 1.837 1.194 0.563 0.563 0.906 1.094 1.2 1.838 0.219 0.563 0.481 1.412 0.55 2.969 0.075 1.688 0.094 2.194 0.094 6.463s-0.019 4.781-0.094 6.463c-0.069 1.563-0.331 2.406-0.55 2.969-0.288 0.744-0.637 1.281-1.194 1.837-0.563 0.563-1.094 0.906-1.837 1.2-0.563 0.219-1.413 0.481-2.969 0.55-1.688 0.075-2.194 0.094-6.463 0.094s-4.781-0.019-6.463-0.094c-1.563-0.069-2.406-0.331-2.969-0.55-0.744-0.288-1.281-0.637-1.838-1.194-0.563-0.563-0.906-1.094-1.2-1.837-0.219-0.563-0.481-1.413-0.55-2.969-0.075-1.688-0.094-2.194-0.094-6.463s0.019-4.781 0.094-6.463c0.069-1.563 0.331-2.406 0.55-2.969 0.288-0.744 0.638-1.281 1.194-1.838 0.563-0.563 1.094-0.906 1.838-1.2 0.563-0.219 1.412-0.481 2.969-0.55 1.681-0.075 2.188-0.094 6.463-0.094zM16 0c-4.344 0-4.887 0.019-6.594 0.094-1.7 0.075-2.869 0.35-3.881 0.744-1.056 0.412-1.95 0.956-2.837 1.85-0.894 0.888-1.438 1.781-1.85 2.831-0.394 1.019-0.669 2.181-0.744 3.881-0.075 1.713-0.094 2.256-0.094 6.6s0.019 4.887 0.094 6.594c0.075 1.7 0.35 2.869 0.744 3.881 0.413 1.056 0.956 1.95 1.85 2.837 0.887 0.887 1.781 1.438 2.831 1.844 1.019 0.394 2.181 0.669 3.881 0.744 1.706 0.075 2.25 0.094 6.594 0.094s4.888-0.019 6.594-0.094c1.7-0.075 2.869-0.35 3.881-0.744 1.050-0.406 1.944-0.956 2.831-1.844s1.438-1.781 1.844-2.831c0.394-1.019 0.669-2.181 0.744-3.881 0.075-1.706 0.094-2.25 0.094-6.594s-0.019-4.887-0.094-6.594c-0.075-1.7-0.35-2.869-0.744-3.881-0.394-1.063-0.938-1.956-1.831-2.844-0.887-0.887-1.781-1.438-2.831-1.844-1.019-0.394-2.181-0.669-3.881-0.744-1.712-0.081-2.256-0.1-6.6-0.1v0z"></path>
<path d="M16 7.781c-4.537 0-8.219 3.681-8.219 8.219s3.681 8.219 8.219 8.219 8.219-3.681 8.219-8.219c0-4.537-3.681-8.219-8.219-8.219zM16 21.331c-2.944 0-5.331-2.387-5.331-5.331s2.387-5.331 5.331-5.331c2.944 0 5.331 2.387 5.331 5.331s-2.387 5.331-5.331 5.331z"></path>
<path d="M26.462 7.456c0 1.060-0.859 1.919-1.919 1.919s-1.919-0.859-1.919-1.919c0-1.060 0.859-1.919 1.919-1.919s1.919 0.859 1.919 1.919z"></path>
</symbol>

<symbol id="icon-telegram" viewBox="0 0 32 32">
<path d="M16 0c-8.838 0-16 7.162-16 16s7.162 16 16 16 16-7.163 16-16-7.163-16-16-16zM23.863 10.969l-2.625 12.369c-0.181 0.881-0.712 1.087-1.45 0.681l-4-2.956-1.919 1.869c-0.225 0.219-0.4 0.4-0.8 0.4-0.519 0-0.431-0.194-0.606-0.688l-1.363-4.475-3.956-1.231c-0.856-0.262-0.862-0.85 0.194-1.269l15.412-5.95c0.7-0.319 1.381 0.169 1.113 1.25z"></path>
</symbol>

<symbol id="icon-github" viewBox="0 0 32 32">
<path d="M16 0.395c-8.836 0-16 7.163-16 16 0 7.069 4.585 13.067 10.942 15.182 0.8 0.148 1.094-0.347 1.094-0.77 0-0.381-0.015-1.642-0.022-2.979-4.452 0.968-5.391-1.888-5.391-1.888-0.728-1.849-1.776-2.341-1.776-2.341-1.452-0.993 0.11-0.973 0.11-0.973 1.606 0.113 2.452 1.649 2.452 1.649 1.427 2.446 3.743 1.739 4.656 1.33 0.143-1.034 0.558-1.74 1.016-2.14-3.554-0.404-7.29-1.777-7.29-7.907 0-1.747 0.625-3.174 1.649-4.295-0.166-0.403-0.714-2.030 0.155-4.234 0 0 1.344-0.43 4.401 1.64 1.276-0.355 2.645-0.532 4.005-0.539 1.359 0.006 2.729 0.184 4.008 0.539 3.054-2.070 4.395-1.64 4.395-1.64 0.871 2.204 0.323 3.831 0.157 4.234 1.026 1.12 1.647 2.548 1.647 4.295 0 6.145-3.743 7.498-7.306 7.895 0.574 0.497 1.085 1.47 1.085 2.963 0 2.141-0.019 3.864-0.019 4.391 0 0.426 0.288 0.925 1.099 0.768 6.354-2.118 10.933-8.113 10.933-15.18 0-8.837-7.164-16-16-16z"></path>
</symbol>

<symbol id="icon-linkedin2" viewBox="0 0 32 32">
<path d="M12 12h5.535v2.837h0.079c0.77-1.381 2.655-2.837 5.464-2.837 5.842 0 6.922 3.637 6.922 8.367v9.633h-5.769v-8.54c0-2.037-0.042-4.657-3.001-4.657-3.005 0-3.463 2.218-3.463 4.509v8.688h-5.767v-18z"></path>
<path d="M2 12h6v18h-6v-18z"></path>
<path d="M8 7c0 1.657-1.343 3-3 3s-3-1.343-3-3c0-1.657 1.343-3 3-3s3 1.343 3 3z"></path>
</symbol>

<symbol id="icon-sad" viewBox="0 0 32 32">
<path d="M16 32c8.837 0 16-7.163 16-16s-7.163-16-16-16-16 7.163-16 16 7.163 16 16 16zM16 3c7.18 0 13 5.82 13 13s-5.82 13-13 13-13-5.82-13-13 5.82-13 13-13zM8 10c0-1.105 0.895-2 2-2s2 0.895 2 2c0 1.105-0.895 2-2 2s-2-0.895-2-2zM20 10c0-1.105 0.895-2 2-2s2 0.895 2 2c0 1.105-0.895 2-2 2s-2-0.895-2-2zM9.997 24.398l-2.573-1.544c1.749-2.908 4.935-4.855 8.576-4.855s6.827 1.946 8.576 4.855l-2.573 1.544c-1.224-2.036-3.454-3.398-6.003-3.398s-4.779 1.362-6.003 3.398z"></path>
</symbol>

<symbol id="icon-map" viewBox="0 0 20 20">
<path d="M19.447 3.718l-6-3c-0.281-0.141-0.613-0.141-0.895 0l-5.63 2.815-5.606-1.869c-0.306-0.102-0.64-0.051-0.901 0.138s-0.415 0.49-0.415 0.811v13.001c0 0.379 0.214 0.725 0.553 0.894l6 3c0.141 0.070 0.294 0.106 0.447 0.106s0.307-0.035 0.447-0.106l5.63-2.814 5.606 1.869c0.305 0.1 0.64 0.049 0.901-0.139s0.415-0.49 0.415-0.81v-13.002c0.001-0.379-0.213-0.725-0.552-0.894zM8 5.231l4-2v11.763l-4 2v-11.763zM2 4l4 1.333v11.661l-4-2v-10.994zM18 16.227l-4-1.334v-11.662l4 2v10.996z"></path>
</symbol>

<symbol id="icon-time-slot" viewBox="0 0 20 20">
<path d="M10 0.4c-5.302 0-9.6 4.298-9.6 9.6s4.298 9.6 9.6 9.6c5.301 0 9.6-4.298 9.6-9.601 0-5.301-4.299-9.599-9.6-9.599zM10 17.599c-4.197 0-7.6-3.402-7.6-7.6 0-4.197 3.402-7.6 7.6-7.6v0 7.601l6.792-3.396c0.513 1.023 0.808 2.173 0.808 3.396 0 4.197-3.403 7.599-7.6 7.599z"></path>
</symbol>


<symbol id="icon-address-book" viewBox="0 0 32 32">
<path d="M6 0v32h24v-32h-24zM18 8.010c2.203 0 3.99 1.786 3.99 3.99s-1.786 3.99-3.99 3.99-3.99-1.786-3.99-3.99 1.786-3.99 3.99-3.99v0zM24 24h-12v-2c0-2.209 1.791-4 4-4v0h4c2.209 0 4 1.791 4 4v2z"></path>
<path d="M2 2h3v6h-3v-6z"></path>
<path d="M2 10h3v6h-3v-6z"></path>
<path d="M2 18h3v6h-3v-6z"></path>
<path d="M2 26h3v6h-3v-6z"></path>
</symbol>


<symbol id="icon-banknote" viewBox="0 0 32 32">
<path d="M31.415 10.586l-10-10c-0.496-0.496-1.215-0.695-1.896-0.527-0.359 0.088-0.68 0.273-0.934 0.527-0.227 0.227-0.398 0.508-0.496 0.822-0.453 1.469-1.236 2.746-2.395 3.904-1.548 1.547-3.564 2.719-5.697 3.958-2.264 1.312-4.603 2.672-6.52 4.588-1.629 1.631-2.738 3.445-3.388 5.551-0.219 0.711-0.028 1.48 0.496 2.006l10 10c0.496 0.496 1.215 0.695 1.896 0.527 0.359-0.090 0.68-0.273 0.934-0.527 0.227-0.227 0.398-0.508 0.496-0.824 0.454-1.469 1.237-2.746 2.397-3.904 1.547-1.547 3.562-2.717 5.697-3.955 2.262-1.314 4.602-2.674 6.518-4.59 1.629-1.629 2.738-3.445 3.389-5.551 0.218-0.71 0.026-1.482-0.497-2.005zM12 30c-3.312-3.312-6.688-6.689-10-10 2.842-9.201 15.16-8.799 18-18 3.312 3.311 6.689 6.688 10.002 10-2.843 9.199-15.161 8.799-18.002 18zM19.562 14.9c-0.326-0.273-0.654-0.459-0.984-0.551-0.328-0.092-0.656-0.129-0.988-0.105-0.328 0.025-0.664 0.1-1 0.229-0.336 0.131-0.674 0.273-1.014 0.438-0.537-0.617-1.074-1.227-1.611-1.793 0.242-0.219 0.477-0.33 0.703-0.338 0.227-0.010 0.445 0.014 0.652 0.066 0.211 0.053 0.404 0.098 0.582 0.133 0.18 0.035 0.336-0.004 0.473-0.119 0.145-0.125 0.225-0.287 0.236-0.482 0.010-0.197-0.064-0.389-0.229-0.576-0.211-0.242-0.465-0.389-0.77-0.443-0.301-0.053-0.609-0.049-0.93 0.021-0.316 0.072-0.617 0.191-0.902 0.359s-0.514 0.34-0.684 0.508c-0.065-0.062-0.13-0.123-0.195-0.184-0.072-0.066-0.162-0.102-0.27-0.1-0.109 0-0.199 0.047-0.273 0.133-0.072 0.084-0.105 0.182-0.092 0.285 0.010 0.107 0.053 0.189 0.127 0.252 0.065 0.055 0.13 0.109 0.195 0.166-0.256 0.309-0.467 0.65-0.633 1.010-0.168 0.361-0.268 0.719-0.305 1.066-0.039 0.35-0.002 0.67 0.105 0.967 0.107 0.299 0.305 0.553 0.594 0.793 0.471 0.391 1.025 0.557 1.668 0.52 0.641-0.039 1.332-0.23 2.075-0.629 0.59 0.682 1.182 1.359 1.773 1.988-0.25 0.211-0.469 0.332-0.662 0.371-0.193 0.041-0.365 0.037-0.521-0.010-0.156-0.049-0.301-0.119-0.434-0.209-0.133-0.092-0.264-0.17-0.395-0.234-0.129-0.064-0.262-0.1-0.398-0.102s-0.281 0.064-0.441 0.201c-0.164 0.143-0.246 0.309-0.246 0.496s0.086 0.375 0.254 0.566c0.17 0.191 0.391 0.352 0.658 0.479s0.569 0.207 0.901 0.229c0.332 0.023 0.682-0.027 1.051-0.164 0.371-0.135 0.738-0.379 1.1-0.742 0.174 0.17 0.35 0.332 0.525 0.488 0.074 0.064 0.164 0.096 0.273 0.088 0.105-0.004 0.197-0.053 0.27-0.141 0.074-0.090 0.105-0.189 0.094-0.293-0.010-0.105-0.053-0.186-0.125-0.244-0.176-0.141-0.352-0.289-0.527-0.445 0.299-0.367 0.539-0.754 0.717-1.137 0.178-0.385 0.283-0.756 0.318-1.1 0.035-0.346-0.006-0.658-0.119-0.941-0.112-0.287-0.311-0.533-0.596-0.77zM13.971 15.578c-0.283 0.012-0.53-0.082-0.746-0.291-0.092-0.088-0.156-0.195-0.195-0.322-0.041-0.127-0.055-0.266-0.039-0.418 0.014-0.15 0.059-0.307 0.137-0.465 0.074-0.158 0.184-0.316 0.324-0.469 0.507 0.504 1.013 1.057 1.52 1.629-0.384 0.211-0.718 0.324-1.001 0.336zM18.688 17.58c-0.090 0.166-0.193 0.314-0.314 0.443-0.561-0.566-1.121-1.188-1.68-1.826 0.143-0.064 0.293-0.131 0.455-0.199s0.324-0.113 0.486-0.141c0.166-0.025 0.33-0.018 0.494 0.021 0.162 0.041 0.316 0.129 0.459 0.268 0.141 0.141 0.23 0.287 0.266 0.445 0.039 0.16 0.041 0.322 0.014 0.488-0.029 0.167-0.088 0.333-0.18 0.501zM14.717 22.18c0.197-0.159 0.487-0.151 0.668 0.033 0.196 0.195 0.196 0.514 0 0.709-0.016 0.016-0.033 0.027-0.051 0.041l0.002 0.002c-0.633 0.481-1.153 0.914-1.714 1.475-0.507 0.506-0.965 1.039-1.361 1.58l-0.639 0.875c-0.020 0.036-0.044 0.069-0.074 0.1-0.196 0.195-0.515 0.195-0.71 0-0.17-0.17-0.191-0.432-0.066-0.627l-0.002-0.002 0.684-0.934c0.427-0.584 0.918-1.156 1.461-1.699 0.565-0.567 1.175-1.073 1.8-1.553h0.002zM18.378 7.715c0.506-0.506 0.963-1.037 1.36-1.581l0.664-0.91c0.024-0.043 0.051-0.086 0.088-0.123 0.197-0.197 0.516-0.197 0.713 0 0.187 0.188 0.195 0.485 0.025 0.684l0.002 0.002-0.684 0.938c-0.428 0.584-0.918 1.154-1.461 1.697-0.565 0.565-1.174 1.073-1.799 1.553l-0.004-0.002c-0.199 0.183-0.508 0.179-0.699-0.014-0.197-0.197-0.197-0.518 0-0.715 0.035-0.037 0.076-0.063 0.117-0.086 0.588-0.449 1.155-0.92 1.678-1.443z"></path>
</symbol>


<symbol id="icon-briefcase" viewBox="0 0 20 20">
<path d="M9 10h2v2h9c0 0-0.149-4.459-0.2-5.854-0.050-1.326-0.525-2.146-2-2.146h-3.208c-0.497-0.938-1.032-1.945-1.197-2.256-0.331-0.623-0.444-0.744-1.179-0.744h-4.433c-0.735 0-0.847 0.121-1.179 0.744-0.165 0.311-0.7 1.318-1.196 2.256h-3.209c-1.476 0-1.945 0.82-2 2.146s-0.199 5.854-0.199 5.854h9v-2zM7.649 2.916c0.23-0.432 0.308-0.516 0.817-0.516h3.067c0.509 0 0.588 0.084 0.816 0.516 0.086 0.16 0.318 0.6 0.575 1.084h-5.85c0.257-0.484 0.489-0.924 0.575-1.084zM11 15h-2v-2h-8.5c0 0 0.124 1.797 0.199 3.322 0.031 0.633 0.218 1.678 1.8 1.678h15.001c1.582 0 1.765-1.047 1.8-1.678 0.087-1.568 0.2-3.322 0.2-3.322h-8.5v2z"></path>
</symbol>


<symbol id="icon-check" viewBox="0 0 20 20">
<path d="M8.294 16.998c-0.435 0-0.847-0.203-1.111-0.553l-3.573-4.721c-0.465-0.613-0.344-1.486 0.27-1.951 0.615-0.467 1.488-0.344 1.953 0.27l2.351 3.104 5.911-9.492c0.407-0.652 1.267-0.852 1.921-0.445s0.854 1.266 0.446 1.92l-6.984 11.21c-0.242 0.391-0.661 0.635-1.12 0.656-0.022 0.002-0.042 0.002-0.064 0.002z"></path>
</symbol>

<symbol id="icon-moon" viewBox="0 0 20 20">
<path d="M13.719 1.8c0.686 0.385 1.332 0.867 1.916 1.449 3.42 3.422 3.42 8.966 0 12.386s-8.965 3.42-12.386 0c-0.583-0.584-1.065-1.231-1.449-1.916 3.335 1.867 7.633 1.387 10.469-1.449s3.318-7.134 1.45-10.47z"></path>
</symbol>

<symbol id="icon-sun" viewBox="0 0 32 32">
<path d="M16 26c1.105 0 2 0.895 2 2v2c0 1.105-0.895 2-2 2s-2-0.895-2-2v-2c0-1.105 0.895-2 2-2zM16 6c-1.105 0-2-0.895-2-2v-2c0-1.105 0.895-2 2-2s2 0.895 2 2v2c0 1.105-0.895 2-2 2zM30 14c1.105 0 2 0.895 2 2s-0.895 2-2 2h-2c-1.105 0-2-0.895-2-2s0.895-2 2-2h2zM6 16c0 1.105-0.895 2-2 2h-2c-1.105 0-2-0.895-2-2s0.895-2 2-2h2c1.105 0 2 0.895 2 2zM25.899 23.071l1.414 1.414c0.781 0.781 0.781 2.047 0 2.828s-2.047 0.781-2.828 0l-1.414-1.414c-0.781-0.781-0.781-2.047 0-2.828s2.047-0.781 2.828 0zM6.101 8.929l-1.414-1.414c-0.781-0.781-0.781-2.047 0-2.828s2.047-0.781 2.828 0l1.414 1.414c0.781 0.781 0.781 2.047 0 2.828s-2.047 0.781-2.828 0zM25.899 8.929c-0.781 0.781-2.047 0.781-2.828 0s-0.781-2.047 0-2.828l1.414-1.414c0.781-0.781 2.047-0.781 2.828 0s0.781 2.047 0 2.828l-1.414 1.414zM6.101 23.071c0.781-0.781 2.047-0.781 2.828 0s0.781 2.047 0 2.828l-1.414 1.414c-0.781 0.781-2.047 0.781-2.828 0s-0.781-2.047 0-2.828l1.414-1.414z"></path>
<path d="M16 8c-4.418 0-8 3.582-8 8s3.582 8 8 8c4.418 0 8-3.582 8-8s-3.582-8-8-8zM16 21c-2.761 0-5-2.239-5-5s2.239-5 5-5 5 2.239 5 5-2.239 5-5 5z"></path>
</symbol>

<symbol id="icon-user-admin" viewBox="0 0 32 32">
<path d="M31.11 28.336c-0.201-0.133-3.848-2.525-9.273-3.699 1.99-2.521 3.268-5.912 3.811-8.169 0.754-3.128 0.461-9.248-2.543-13.062-1.756-2.229-4.213-3.406-7.105-3.406s-5.349 1.178-7.104 3.406c-3.004 3.813-3.296 9.933-2.543 13.061 0.543 2.257 1.82 5.648 3.811 8.169-5.425 1.174-9.072 3.566-9.272 3.699-0.733 0.488-1.061 1.4-0.805 2.242 0.254 0.845 1.033 1.423 1.913 1.423h28c0.881 0 1.658-0.578 1.914-1.422 0.257-0.842-0.071-1.754-0.804-2.242zM20.267 23.398l-0.326 0.414c-2.385 2.74-5.495 2.74-7.879 0l-0.327-0.414c-2.785-3.529-4.167-8.197-3.572-12.65 0.545-4.279 2.997-8.748 7.837-8.748s7.293 4.47 7.838 8.749c0.593 4.455-0.784 9.118-3.571 12.649zM2 30c0.138-0.092 3.526-2.314 8.586-3.408l2.484-0.537c0.887 0.582 1.86 0.945 2.93 0.945 1.071 0 2.043-0.363 2.93-0.945l2.484 0.537c5.020 1.086 8.396 3.283 8.586 3.408h-28z"></path>
</symbol>

<symbol id="icon-key" viewBox="0 0 32 32">
<path d="M22.004 0c-5.523 0-10 4.478-10 10 0 1.285 0.269 2.501 0.713 3.629l-12.149 12.148c-0.351 0.352-0.568 0.686-0.568 1.223v3c0 1.070 0.929 2 2 2h3c0.536 0 0.875-0.215 1.226-0.564l1.435-1.436h2.343c1.104 0 2-0.896 2-2v-2h2c1.104 0 2-0.896 2-2v-2.344l2.369-2.371c1.129 0.445 2.344 0.715 3.631 0.715 5.521 0 10-4.478 10-10s-4.479-10-10-10zM22.004 18c-1.48 0-2.852-0.43-4.041-1.132l-0.344 0.343-3.030 3.031c-0.375 0.375-0.586 0.883-0.586 1.414v2.344h-2c-1.104 0-2 0.895-2 2v2h-2.342c-0.53 0-1.039 0.211-1.414 0.586l-1.418 1.418-2.826-0.004-0.003-2.85 11.665-11.644c0 0 0 0.001 0.001 0.002l1.469-1.469c-0.702-1.189-1.132-2.56-1.132-4.040 0-4.418 3.583-8 8-8s8 3.582 8 8-3.581 8.001-7.999 8.001zM27.82 8.239c-1.121-1.562-2.486-2.925-4.055-4.054-0.255-0.185-0.585-0.231-0.882-0.127-1.389 0.489-2.34 1.439-2.826 2.828-0.037 0.104-0.055 0.212-0.055 0.319 0 0.199 0.062 0.396 0.182 0.563 1.125 1.564 2.488 2.928 4.053 4.053 0.256 0.184 0.584 0.231 0.881 0.128 1.391-0.486 2.342-1.438 2.83-2.828 0.037-0.104 0.055-0.212 0.055-0.319-0.001-0.199-0.064-0.396-0.183-0.563zM24.82 11.010c-1.478-1.063-2.765-2.35-3.82-3.793 0.387-1.103 1.111-1.827 2.182-2.221 1.479 1.065 2.764 2.349 3.816 3.811-0.391 1.095-1.113 1.815-2.178 2.203z"></path>
</symbol>

<symbol id="icon-eye" viewBox="0 0 32 32">
<path d="M31.965 15.776c-0.010-0.042-0.004-0.087-0.020-0.128-0.006-0.017-0.021-0.026-0.027-0.042-0.010-0.024-0.008-0.051-0.021-0.074-2.9-5.551-9.213-9.528-15.873-9.528-6.661 0-12.973 3.971-15.875 9.521-0.013 0.023-0.011 0.050-0.021 0.074-0.007 0.016-0.021 0.025-0.027 0.042-0.016 0.041-0.010 0.086-0.020 0.128-0.018 0.075-0.035 0.147-0.035 0.224s0.018 0.148 0.035 0.224c0.010 0.042 0.004 0.087 0.020 0.128 0.006 0.017 0.021 0.026 0.027 0.042 0.010 0.024 0.008 0.051 0.021 0.074 2.901 5.551 9.214 9.528 15.875 9.528 6.66 0 12.973-3.971 15.873-9.521 0.014-0.023 0.012-0.050 0.021-0.074 0.006-0.016 0.021-0.025 0.027-0.042 0.016-0.041 0.010-0.086 0.020-0.128 0.017-0.076 0.035-0.148 0.035-0.224s-0.018-0.149-0.035-0.224zM16.023 23.988c-5.615 0-11.112-3.191-13.851-7.995 2.754-4.81 8.243-7.99 13.851-7.99 5.613 0 11.111 3.192 13.85 7.995-2.754 4.811-8.242 7.99-13.85 7.99zM16.023 11.999c0.276 0 0.498 0.223 0.498 0.5 0 0.275-0.223 0.499-0.498 0.499v0.001c-1.654 0-2.999 1.345-2.999 2.997 0 0.276-0.224 0.5-0.499 0.5s-0.5-0.224-0.5-0.5c0-2.205 1.787-3.992 3.992-3.996 0.002 0 0.004-0.001 0.006-0.001zM16 9c-3.867 0-7 3.134-7 7s3.134 7 7 7c3.865 0 7-3.135 7-7 0-3.867-3.135-7-7-7zM16 22c-3.309 0-6-2.691-6-6s2.691-6 6-6c3.309 0 6 2.691 6 6s-2.691 6-6 6z"></path>
</symbol>

<symbol id="icon-diamond" viewBox="0 0 32 32">
<path d="M31.414 9.677l-5.080-5.081c-0.375-0.375-0.885-0.586-1.414-0.586h-17.839c-0.53 0-1.039 0.211-1.414 0.586l-5.080 5.081c-0.393 0.392-0.589 0.909-0.587 1.427 0.003 0.47 0.171 0.939 0.506 1.316l13.999 14.908c0.38 0.428 0.924 0.672 1.495 0.672s1.115-0.244 1.494-0.672l14-14.908c0.342-0.385 0.51-0.867 0.506-1.348-0.004-0.506-0.201-1.010-0.586-1.395zM18.219 11.010h-4.439l2.22-1.849 2.219 1.849zM16.782 8.51l2.732-2.278 2.018 2.018-2.532 2.109-2.218-1.849zM13 10.359l-2.532-2.109 2.018-2.018 2.733 2.278-2.219 1.849zM18.49 12.010l-2.49 12.453-2.49-12.453h4.98zM19.51 12.010h4.906l-7.359 12.269 2.453-12.269zM19.779 11.010l2.463-2.051 2.051 2.051h-4.514zM20.707 6.010h3.512l-1.916 1.597-1.596-1.597zM16 7.86l-2.22-1.85h4.438l-2.218 1.85zM9.696 7.607l-1.916-1.597h3.513l-1.597 1.597zM9.758 8.959l2.462 2.051h-4.513l2.051-2.051zM12.49 12.010l2.453 12.269-7.36-12.269h4.907zM12.704 22.488l-9.84-10.478h3.554l6.286 10.478zM25.582 12.010h3.555l-9.842 10.48 6.287-10.48zM25.707 11.010l-2.693-2.693 2.297-1.915 4.607 4.608h-4.211zM6.686 6.4l2.301 1.917-2.694 2.693h-4.287l4.68-4.61z"></path>
</symbol>


<symbol id="icon-t-shirt" viewBox="0 0 32 32">
<path d="M31.25 6.438l-5-4c-0.355-0.284-0.797-0.438-1.25-0.438h-18c-0.454 0-0.895 0.154-1.25 0.438l-5 4c-0.654 0.524-0.912 1.4-0.647 2.195l2 6c0.197 0.591 0.659 1.057 1.249 1.259 0.21 0.072 0.43 0.108 0.648 0.108 0.348 0 0.693-0.091 1-0.268v12.268c0 1.104 0.896 2 2 2h18c1.104 0 2-0.896 2-2v-12.268c0.307 0.177 0.652 0.268 1 0.268 0.219 0 0.438-0.036 0.648-0.108 0.59-0.202 1.051-0.668 1.248-1.259l2-6c0.266-0.795 0.008-1.671-0.646-2.195zM19.754 4c-0.553 1.161-2.018 2-3.754 2s-3.202-0.839-3.754-2h7.508zM28 14l-3-2v16h-18v-16l-3 2-2-6 5-4h4.177c0.557 1.722 2.496 3 4.823 3s4.266-1.278 4.822-3h4.178l5 4-2 6z"></path>
</symbol>

<symbol id="icon-sound" viewBox="0 0 32 32">
<path d="M26.998 14.003c0-4.962-4.037-9-9-8.999v-0.004c-0.275-0.001-0.498-0.225-0.498-0.5s0.223-0.5 0.5-0.5c0.010 0 0.018 0.004 0.025 0.006 5.508 0.013 9.967 4.477 9.973 9.986 0 0.003 0.002 0.005 0.002 0.008 0 0.276-0.225 0.499-0.5 0.499s-0.498-0.222-0.5-0.496h-0.002zM9.121 0.878c-0.573-0.574-1.341-0.878-2.122-0.878-0.386 0-0.775 0.074-1.146 0.228-1.122 0.464-1.853 1.558-1.853 2.772l-0.001 13.757-3.12 3.122c-1.172 1.17-1.172 3.070 0 4.242l7 7c0.586 0.586 1.353 0.879 2.121 0.879s1.535-0.293 2.121-0.879l3.121-3.121h13.756c1.215 0 2.309-0.73 2.771-1.852 0.465-1.121 0.209-2.412-0.65-3.27l-21.998-22zM13.828 26.586l-3.121 3.121c-0.255 0.254-0.553 0.293-0.707 0.293s-0.452-0.039-0.707-0.293l-7-7c-0.255-0.256-0.293-0.553-0.293-0.707s0.038-0.453 0.293-0.707l3.12-3.121c0.009-0.010 0.012-0.021 0.021-0.031l8.425 8.426c-0.009 0.007-0.022 0.009-0.031 0.019zM15.242 26c-0.155 0-0.299 0.055-0.447 0.088l-8.885-8.885c0.034-0.148 0.089-0.292 0.089-0.446l0.001-12.046 21.287 21.289h-12.045zM29.922 25.383c-0.154 0.375-0.518 0.617-0.924 0.617h-0.297l-22.701-22.703v-0.297c0-0.406 0.242-0.769 0.617-0.924 0.123-0.051 0.251-0.076 0.382-0.076 0.268 0 0.519 0.104 0.707 0.292l21.999 22.001c0.287 0.287 0.373 0.715 0.217 1.090zM17.998 2c-0.551-0.001-0.998-0.449-0.998-1 0-0.553 0.447-1 1-1 0.010 0 0.018 0.004 0.025 0.005 7.717 0.014 13.967 6.269 13.973 13.987 0 0.003 0.002 0.005 0.002 0.008 0 0.553-0.447 1-1 1-0.551 0-0.998-0.446-1-0.996h-0.002c0-6.617-5.383-12-12-12v-0.004z"></path>
</symbol>


<symbol id="icon-log-out" viewBox="0 0 20 20">
<path d="M19 10l-6-5v3h-7v4h7v3l6-5zM3 3h8v-2h-8c-1.1 0-2 0.9-2 2v14c0 1.1 0.9 2 2 2h8v-2h-8v-14z"></path>
</symbol>


<symbol id="icon-type" viewBox="0 0 32 32">
<path d="M28 0h-24c-0.552 0-1 0.448-1 1v6c0 0.552 0.448 1 1 1h1c0.552 0 1-0.448 1-1l2-3h6v24l-5 2c-0.552 0-1 0.447-1 1s0.448 1 1 1h14c0.553 0 1-0.447 1-1s-0.447-1-1-1l-5-2v-24h6l2 3c0 0.552 0.447 1 1 1h1c0.553 0 1-0.448 1-1v-6c0-0.552-0.447-1-1-1z"></path>
</symbol>


<symbol id="icon-format-text-size" viewBox="0 0 20 20">
<path d="M16 9v8h-2v-8h-4v-2h10v2h-4zM8 5v12h-2v-12h-6v-2h15v2h-7z"></path>
</symbol>

<symbol id="icon-wallet" viewBox="0 0 32 32">
<path d="M16 20c0-1.105 0.895-2 2-2s2 0.895 2 2c0 1.105-0.895 2-2 2s-2-0.895-2-2zM29.001 13c-0.001 0-0.001 0 0 0l-0.001-6v-3c0-1.657-1.344-3-3-3h-20.5c-3.033 0-5.5 2.468-5.5 5.5v20c0 3.032 2.467 5.5 5.5 5.5h18c3.032 0 5.5-2.468 5.5-5.5v-1.5c0 0 0 0 0.001 0 3.998-3.001 3.998-8.999 0-12zM5.5 3h20.5c0.551 0 1 0.448 1 1v6.184c-0.314-0.112-0.648-0.184-1-0.184h-0.001v-5c0-0.553-0.448-1-1-1h-21c-0.552 0-1 0.447-1 1v3.943c-0.617-0.631-0.999-1.491-0.999-2.443 0-1.933 1.566-3.5 3.5-3.5zM24.999 6h-21v-1h21v1zM24.999 7v1h-21v-1h21zM24.999 9v1h-19.499c-0.54 0-1.044-0.132-1.5-0.35v-0.65h20.999zM27 26.5c0 1.933-1.567 3.5-3.5 3.5h-18c-1.934 0-3.5-1.567-3.5-3.5v-15.761c0.951 0.787 2.171 1.261 3.5 1.261h20.5c0.551 0 1 0.448 1 1v2h-9c-2.762 0-5 2.238-5 5s2.239 5 5 5h9v1.5zM28.277 23h-10.277c-1.654 0-3-1.346-3-3s1.346-3 3-3h9c0.617-0.008 1.229-0.307 1.602-0.804 0.104-0.14 0.185-0.297 0.25-0.461 0.009-0.022 0.025-0.039 0.033-0.062 0.719 0.943 1.115 2.099 1.115 3.327 0 1.538-0.621 2.965-1.723 4z"></path>
</symbol>

<symbol id="icon-pen" viewBox="0 0 32 32">
<path d="M29.395 2.58c-1.645-1.643-3.811-2.58-5.946-2.58-1.801 0-3.459 0.668-4.67 1.877l-4.867 4.904c-0.015 0.014-0.032 0.023-0.047 0.038-0.008 0.008-0.013 0.019-0.021 0.026l0.002 0.002-10.329 10.409c-0.476 0.473-0.821 1.062-1.013 1.705l-2.349 8.508c-0.002 0.023-0.155 0.691-0.155 1.031 0 1.932 1.569 3.5 3.504 3.5 0.385 0 1.13-0.184 1.157-0.188l8.478-2.229c0.644-0.191 1.229-0.539 1.705-1.016l15.263-15.383c2.776-2.778 2.463-7.434-0.712-10.604zM16.014 23.795c-0.082-0.902-0.337-1.787-0.719-2.627l9.455-9.454c0.578 1.826 0.281 3.736-0.986 5.004-0.008 0.008-0.018 0.013-0.025 0.021l0.014 0.013-7.728 7.79c0-0.249 0.012-0.493-0.011-0.747zM14.793 20.256c-0.373-0.613-0.797-1.205-1.322-1.729-0.611-0.611-1.312-1.090-2.044-1.492l9.532-9.532c0.748 0.332 1.465 0.805 2.098 1.438 0.541 0.539 0.959 1.143 1.281 1.771l-9.545 9.544zM10.486 16.562c-0.926-0.373-1.896-0.586-2.868-0.599l7.703-7.762c1.179-1.15 2.896-1.481 4.587-1.062l-9.422 9.423zM4.167 29.873c-0.109 0.025-0.448 0.111-0.678 0.127-0.822-0.010-1.489-0.678-1.489-1.5 0.012-0.168 0.079-0.457 0.102-0.562l1.053-3.814c1.143-0.031 2.373 0.414 3.34 1.383 0.982 0.98 1.444 2.234 1.394 3.391l-3.722 0.975zM8.874 28.637c-0.024-1.342-0.57-2.738-1.672-3.838-1.042-1.043-2.406-1.645-3.766-1.699l0.996-3.607c0.072-0.24 0.215-0.477 0.391-0.684 2.006-1.436 5.091-1.012 7.234 1.133 2.267 2.266 2.617 5.586 0.871 7.568-0.116 0.061-0.233 0.119-0.359 0.156l-3.695 0.971zM28.691 11.772l-1.684 1.697c0-0.226 0.027-0.443 0.006-0.674-0.176-1.935-1.078-3.806-2.543-5.269-1.629-1.63-3.789-2.565-5.928-2.571l1.656-1.67c0.829-0.827 1.986-1.285 3.251-1.285 1.609 0 3.262 0.728 4.533 1.995 1.193 1.191 1.904 2.671 2.006 4.168 0.094 1.397-0.367 2.678-1.297 3.609z"></path>
</symbol>


<symbol id="icon-search" viewBox="0 0 32 32">
<path d="M20 0.005c-6.627 0-12 5.373-12 12 0 2.026 0.507 3.933 1.395 5.608l-8.344 8.342 0.007 0.006c-0.652 0.641-1.058 1.529-1.058 2.516 0 1.949 1.58 3.529 3.529 3.529 0.985 0 1.874-0.406 2.515-1.059l-0.002-0.002 8.341-8.34c1.676 0.891 3.586 1.4 5.617 1.4 6.627 0 12-5.373 12-12s-5.373-12-12-12zM4.795 29.697c-0.322 0.334-0.768 0.543-1.266 0.543-0.975 0-1.765-0.789-1.765-1.764 0-0.498 0.21-0.943 0.543-1.266l-0.009-0.008 8.066-8.066c0.705 0.951 1.545 1.791 2.494 2.498l-8.063 8.063zM20 22.006c-5.522 0-10-4.479-10-10s4.478-10 10-10c5.521 0 10 4.478 10 10s-4.479 10-10 10zM20 5.005c0.275 0 0.5 0.224 0.5 0.5s-0.225 0.5-0.5 0.5c-3.314 0-6 2.687-6 6 0 0.276-0.224 0.5-0.5 0.5s-0.5-0.224-0.5-0.5c0-3.866 3.133-7 7-7z"></path>
</symbol>

<symbol id="icon-group" viewBox="0 0 30 28">
<path d="M9.266 14c-1.625 0.047-3.094 0.75-4.141 2h-2.094c-1.563 0-3.031-0.75-3.031-2.484 0-1.266-0.047-5.516 1.937-5.516 0.328 0 1.953 1.328 4.062 1.328 0.719 0 1.406-0.125 2.078-0.359-0.047 0.344-0.078 0.688-0.078 1.031 0 1.422 0.453 2.828 1.266 4zM26 23.953c0 2.531-1.672 4.047-4.172 4.047h-13.656c-2.5 0-4.172-1.516-4.172-4.047 0-3.531 0.828-8.953 5.406-8.953 0.531 0 2.469 2.172 5.594 2.172s5.063-2.172 5.594-2.172c4.578 0 5.406 5.422 5.406 8.953zM10 4c0 2.203-1.797 4-4 4s-4-1.797-4-4 1.797-4 4-4 4 1.797 4 4zM21 10c0 3.313-2.688 6-6 6s-6-2.688-6-6 2.688-6 6-6 6 2.688 6 6zM30 13.516c0 1.734-1.469 2.484-3.031 2.484h-2.094c-1.047-1.25-2.516-1.953-4.141-2 0.812-1.172 1.266-2.578 1.266-4 0-0.344-0.031-0.688-0.078-1.031 0.672 0.234 1.359 0.359 2.078 0.359 2.109 0 3.734-1.328 4.062-1.328 1.984 0 1.937 4.25 1.937 5.516zM28 4c0 2.203-1.797 4-4 4s-4-1.797-4-4 1.797-4 4-4 4 1.797 4 4z"></path>
</symbol>

<symbol id="icon-study" viewBox="0 0 32 32">
<path d="M32 8c0-1.406-0.957-2.608-2.326-2.924l-13.013-3.003c-0.218-0.049-0.44-0.073-0.661-0.073s-0.443 0.024-0.675 0.076l-12.999 3c-1.37 0.316-2.326 1.518-2.326 2.924s0.957 2.608 2.325 2.924l2.675 0.617v8.459c0 2.654 3.038 5 11 5s11-2.346 11-5v-8.459l2.674-0.617c1.369-0.316 2.326-1.518 2.326-2.924zM25 20c0 1.105-3 3-9 3s-9-1.895-9-3v-7.997l8.338 1.924c0.218 0.049 0.441 0.073 0.662 0.073s0.444-0.024 0.674-0.076l8.326-1.921v7.997zM16.225 11.975c-0.075 0.016-0.15 0.025-0.225 0.025s-0.151-0.009-0.225-0.025l-13-3c-0.454-0.105-0.775-0.509-0.775-0.975s0.321-0.87 0.775-0.975l13-3c0.074-0.016 0.149-0.025 0.225-0.025s0.151 0.009 0.225 0.025l13 3c0.453 0.105 0.775 0.509 0.775 0.975s-0.322 0.87-0.775 0.975l-13 3zM29 13c0-0.553 0.447-1 1-1 0.552 0 1 0.447 1 1v9c0 0.553-0.448 1-1 1-0.553 0-1-0.447-1-1v-9zM30 24c1.104 0 2 2.896 2 4s-0.896 2-2 2c-1.105 0-2-0.896-2-2s0.895-4 2-4z"></path>
</symbol>

<symbol id="icon-shop" viewBox="0 0 32 32">
<path d="M31.4 11.2l-3-3.998c-0.117-0.157-0.256-0.293-0.4-0.423v-4.779c0-1.104-0.896-2-2-2h-20c-1.105 0-2 0.896-2 2v4.78c-0.144 0.129-0.283 0.264-0.4 0.42l-2.999 3.999c-0.388 0.516-0.601 1.155-0.601 1.801v1c0 1.654 1.346 3 3 3v0 13c0 1.104 0.896 2 2 2h22c1.104 0 2-0.896 2-2v-13c1.654 0 3-1.346 3-3v-1c0-0.646-0.213-1.285-0.6-1.8zM26 2v4h-20v-4h20zM10.193 15h-4.189l4-7h2.189l-2 7zM13.234 8h2.266v7h-4.266l2-7zM16.5 8h2.266l2 7h-4.266v-7zM19.805 8h2.189l4 7h-4.189l-2-7zM2 14v-1c0-0.217 0.070-0.427 0.2-0.6l3-4c0.189-0.252 0.485-0.4 0.8-0.4h2.852l-4 7h-1.852c-0.552 0-1-0.447-1-1zM20 30h-7.5v-10h7.5v10zM27 30h-6v-10c0-0.553-0.449-1-1-1h-7.5c-0.552 0-1 0.447-1 1v10h-6.5v-13h22v13zM30 14c0 0.553-0.447 1-1 1h-1.854l-4-7h2.854c0.314 0 0.611 0.148 0.799 0.4l3 4c0.131 0.173 0.201 0.383 0.201 0.6v1z"></path>
</symbol>


<symbol id="icon-settings" viewBox="0 0 32 32">
<path d="M30.391 12.68l-3.064-0.614c-0.154-0.443-0.336-0.873-0.537-1.289l1.736-2.604c0.529-0.793 0.424-1.85-0.25-2.523l-1.924-1.924c-0.387-0.387-0.898-0.586-1.416-0.586-0.383 0-0.77 0.11-1.107 0.336l-2.604 1.735c-0.418-0.202-0.848-0.382-1.291-0.536l-0.614-3.065c-0.186-0.936-1.008-1.608-1.961-1.608h-2.72c-0.953 0-1.774 0.673-1.961 1.608l-0.614 3.065c-0.443 0.154-0.873 0.335-1.289 0.536l-2.603-1.735c-0.339-0.226-0.725-0.336-1.109-0.336-0.517 0-1.028 0.199-1.415 0.586l-1.923 1.924c-0.674 0.674-0.779 1.73-0.25 2.523l1.735 2.604c-0.202 0.417-0.382 0.847-0.536 1.29l-3.066 0.613c-0.935 0.187-1.608 1.008-1.608 1.961v2.72c0 0.953 0.673 1.775 1.608 1.961l3.065 0.615c0.154 0.443 0.335 0.873 0.536 1.289l-1.734 2.604c-0.529 0.793-0.424 1.85 0.25 2.523l1.924 1.924c0.387 0.387 0.898 0.586 1.415 0.586 0.384 0 0.771-0.111 1.108-0.336l2.604-1.736c0.417 0.203 0.847 0.383 1.29 0.537l0.613 3.064c0.187 0.936 1.008 1.609 1.961 1.609h2.72c0.953 0 1.775-0.674 1.961-1.609l0.615-3.064c0.443-0.154 0.873-0.336 1.289-0.537l2.604 1.736c0.338 0.225 0.725 0.336 1.107 0.336 0.518 0 1.029-0.199 1.416-0.586l1.924-1.924c0.674-0.674 0.779-1.73 0.25-2.523l-1.736-2.604c0.203-0.418 0.383-0.848 0.537-1.291l3.064-0.613c0.935-0.185 1.609-1.008 1.609-1.961v-2.72c0-0.953-0.674-1.774-1.609-1.961zM26.934 17.975c-0.695 0.139-1.264 0.635-1.496 1.305-0.129 0.369-0.279 0.727-0.447 1.074-0.311 0.639-0.258 1.393 0.135 1.982l1.736 2.604-1.924 1.924-2.604-1.736c-0.334-0.223-0.721-0.336-1.109-0.336-0.297 0-0.596 0.066-0.871 0.199-0.348 0.168-0.705 0.32-1.076 0.449-0.668 0.232-1.164 0.801-1.303 1.496l-0.615 3.066h-2.72l-0.613-3.066c-0.139-0.695-0.635-1.264-1.304-1.496-0.369-0.129-0.728-0.279-1.075-0.447-0.276-0.135-0.574-0.201-0.872-0.201-0.389 0-0.775 0.113-1.109 0.336l-2.604 1.736-1.924-1.924 1.735-2.604c0.393-0.59 0.444-1.344 0.137-1.98-0.168-0.348-0.319-0.705-0.448-1.076-0.232-0.668-0.802-1.164-1.496-1.303l-3.065-0.615-0.002-2.721 3.066-0.613c0.694-0.139 1.264-0.635 1.496-1.304 0.129-0.369 0.278-0.728 0.447-1.075 0.31-0.638 0.258-1.392-0.136-1.981l-1.734-2.604 1.923-1.924 2.604 1.735c0.334 0.223 0.721 0.336 1.109 0.336 0.297 0 0.595-0.066 0.871-0.199 0.347-0.168 0.705-0.319 1.075-0.448 0.669-0.232 1.165-0.802 1.304-1.496l0.614-3.065 2.72-0.001 0.613 3.066c0.139 0.694 0.635 1.264 1.305 1.496 0.369 0.129 0.727 0.278 1.074 0.447 0.277 0.134 0.574 0.2 0.873 0.2 0.389 0 0.775-0.113 1.109-0.336l2.604-1.735 1.924 1.924-1.736 2.604c-0.393 0.59-0.443 1.343-0.137 1.98 0.168 0.347 0.32 0.705 0.449 1.075 0.232 0.669 0.801 1.165 1.496 1.304l3.064 0.614 0.003 2.72-3.066 0.614zM16 9.001c-3.865 0-7 3.135-7 7 0 3.866 3.135 7 7 7s7-3.135 7-7c0-3.865-3.135-7-7-7zM16 22.127c-3.382 0-6.125-2.744-6.125-6.125s2.743-6.125 6.125-6.125c3.381 0 6.125 2.743 6.125 6.125 0 3.381-2.744 6.125-6.125 6.125zM16 12.001c-2.21 0-4 1.79-4 4s1.79 4 4 4c2.209 0 4-1.791 4-4s-1.791-4-4-4zM16 19.002c-1.656 0-3-1.344-3-3s1.344-3 3-3 3 1.344 3 3c0 1.656-1.344 3-3 3z"></path>
</symbol>

<symbol id="icon-news" viewBox="0 0 32 32">
<path d="M29 0h-22c-1.657 0-3 1.342-3 3v2h-1c-1.657 0-3 1.342-3 3v20c0 2.209 1.791 4 4 4h24c2.209 0 4-1.791 4-4v-25c0-1.658-1.344-3-3-3zM30 28c0 1.102-0.898 2-2 2h-24c-1.103 0-2-0.898-2-2v-20c0-0.552 0.448-1 1-1h1v20c0 0.553 0.447 1 1 1s1-0.447 1-1v-24c0-0.552 0.448-1 1-1h22c0.551 0 1 0.448 1 1v25zM19.498 13.005c-0.275 0-0.5-0.224-0.5-0.5s0.225-0.5 0.5-0.5h8c0.277 0 0.5 0.224 0.5 0.5s-0.223 0.5-0.5 0.5h-8zM19.498 10.005c-0.275 0-0.5-0.224-0.5-0.5s0.225-0.5 0.5-0.5h8c0.277 0 0.5 0.224 0.5 0.5s-0.223 0.5-0.5 0.5h-8zM19.498 7.005c-0.275 0-0.5-0.224-0.5-0.5s0.225-0.5 0.5-0.5h8c0.277 0 0.5 0.224 0.5 0.5s-0.223 0.5-0.5 0.5h-8zM16.5 27.004c0.276 0 0.5 0.225 0.5 0.5 0 0.277-0.225 0.5-0.5 0.5h-8c-0.276 0-0.5-0.223-0.5-0.5 0-0.275 0.224-0.5 0.5-0.5h8zM16.5 24.004c0.276 0 0.5 0.225 0.5 0.5 0 0.277-0.225 0.5-0.5 0.5h-8c-0.276 0-0.5-0.223-0.5-0.5 0-0.275 0.224-0.5 0.5-0.5h8zM16.5 21.004c0.276 0 0.5 0.225 0.5 0.5 0 0.277-0.225 0.5-0.5 0.5h-8c-0.276 0-0.5-0.223-0.5-0.5 0-0.275 0.224-0.5 0.5-0.5h8zM27.5 27.004c0.275 0 0.5 0.225 0.5 0.5 0 0.277-0.225 0.5-0.5 0.5h-8c-0.277 0-0.5-0.223-0.5-0.5 0-0.275 0.223-0.5 0.5-0.5h8zM27.5 24.004c0.275 0 0.5 0.225 0.5 0.5 0 0.277-0.225 0.5-0.5 0.5h-8c-0.277 0-0.5-0.223-0.5-0.5 0-0.275 0.223-0.5 0.5-0.5h8zM27.5 21.004c0.275 0 0.5 0.225 0.5 0.5 0 0.277-0.225 0.5-0.5 0.5h-8c-0.277 0-0.5-0.223-0.5-0.5 0-0.275 0.223-0.5 0.5-0.5h8zM27.5 15.004c0.275 0 0.5 0.224 0.5 0.5s-0.225 0.5-0.5 0.5h-19c-0.276 0-0.5-0.224-0.5-0.5s0.224-0.5 0.5-0.5h19zM27.5 18.004c0.275 0 0.5 0.225 0.5 0.5 0 0.277-0.225 0.5-0.5 0.5h-19c-0.276 0-0.5-0.223-0.5-0.5 0-0.275 0.224-0.5 0.5-0.5h19zM9 13h7c0.553 0 1-0.447 1-1v-6.996c0-0.553-0.447-1-1-1h-7c-0.553 0-1 0.447-1 1v6.996c0 0.552 0.447 1 1 1zM10 6h5v5h-5v-5z"></path>
</symbol>

<symbol id="icon-world" viewBox="0 0 32 32">
<path d="M15.5 0c-8.561 0-15.5 6.939-15.5 15.5s6.939 15.5 15.5 15.5 15.5-6.939 15.5-15.5-6.939-15.5-15.5-15.5zM28.975 15h-5.996c-0.055-2.215-0.449-4.331-1.148-6.268 1.35-0.563 2.598-1.312 3.736-2.197 2.023 2.271 3.288 5.22 3.408 8.465zM14.947 28.972c-1.662-1.384-3.056-3.181-4.076-5.268 1.309-0.409 2.696-0.633 4.129-0.679v5.949c-0.018 0-0.035-0.001-0.053-0.002zM16.051 2.028c1.886 1.57 3.425 3.673 4.466 6.126-1.426 0.487-2.941 0.77-4.518 0.82v-6.949c0.019 0.001 0.035 0.002 0.052 0.003zM17.717 2.198c2.76 0.459 5.236 1.748 7.164 3.614-1.047 0.803-2.191 1.483-3.428 1.998-0.91-2.157-2.187-4.064-3.736-5.612zM15 2.025v6.949c-1.577-0.051-3.093-0.333-4.518-0.82 1.041-2.453 2.58-4.556 4.466-6.126 0.018-0.001 0.034-0.002 0.052-0.003zM9.546 7.811c-1.235-0.515-2.38-1.195-3.427-1.998 1.927-1.866 4.404-3.155 7.164-3.614-1.55 1.547-2.826 3.454-3.737 5.612zM10.105 9.076c1.542 0.535 3.185 0.847 4.895 0.899v5.025h-5.979c0.054-2.094 0.425-4.095 1.084-5.924zM15 16v6.025c-1.577 0.048-3.102 0.306-4.539 0.769-0.866-2.062-1.377-4.359-1.44-6.794h5.979zM13.283 28.802c-2.473-0.411-4.719-1.488-6.545-3.052 0.985-0.683 2.050-1.261 3.188-1.7 0.872 1.808 2.013 3.413 3.357 4.752zM16 28.975v-5.949c1.432 0.046 2.82 0.27 4.129 0.679-1.021 2.087-2.414 3.884-4.076 5.268-0.017 0-0.035 0.001-0.053 0.002zM21.074 24.050c1.137 0.439 2.201 1.018 3.188 1.7-1.826 1.563-4.072 2.641-6.545 3.052 1.344-1.339 2.484-2.944 3.357-4.752zM20.539 22.794c-1.438-0.463-2.963-0.721-4.539-0.769v-6.025h5.979c-0.063 2.435-0.575 4.732-1.44 6.794zM16 15v-5.025c1.709-0.052 3.352-0.363 4.895-0.898 0.658 1.829 1.029 3.83 1.084 5.924h-5.979zM5.434 6.535c1.138 0.885 2.386 1.634 3.735 2.197-0.699 1.937-1.093 4.053-1.148 6.268h-5.996c0.12-3.245 1.385-6.194 3.409-8.465zM2.025 16h5.996c0.062 2.555 0.596 4.968 1.503 7.137-1.267 0.494-2.448 1.152-3.538 1.931-2.348-2.337-3.83-5.532-3.961-9.068zM25.014 25.067c-1.090-0.778-2.271-1.437-3.539-1.931 0.908-2.169 1.441-4.582 1.504-7.137h5.996c-0.131 3.537-1.614 6.732-3.961 9.068z"></path>
</symbol>


<symbol id="icon-data" viewBox="0 0 32 32">
<path d="M16 0c-6.744 0-14 2.033-14 6.5v19c0 4.465 7.256 6.5 14 6.5s14-2.035 14-6.5v-19c0-4.467-7.258-6.5-14-6.5zM28 25.5c0 2.484-5.373 4.5-12 4.5-6.628 0-12-2.016-12-4.5v-3.736c2.066 2.129 7.050 3.236 12 3.236s9.934-1.107 12-3.236v3.736zM28 19.5h-0.004c0 0.010 0.004 0.021 0.004 0.031 0 2.469-5.373 4.469-12 4.469s-12-2-12-4.469c0-0.010 0.004-0.021 0.004-0.031h-0.004v-3.736c2.066 2.129 7.050 3.236 12 3.236s9.934-1.107 12-3.236v3.736zM28 13.5h-0.004c0 0.010 0.004 0.021 0.004 0.031 0 2.469-5.373 4.469-12 4.469s-12-2-12-4.469c0-0.010 0.004-0.021 0.004-0.031h-0.004v-3.436c2.621 1.997 7.425 2.936 12 2.936s9.379-0.939 12-2.936v3.436zM16 11c-6.628 0-12-2.016-12-4.5 0-2.486 5.372-4.5 12-4.5 6.627 0 12 2.014 12 4.5 0 2.484-5.373 4.5-12 4.5zM24 26c0-0.552 0.448-1 1-1s1 0.448 1 1c0 0.552-0.448 1-1 1s-1-0.448-1-1zM24 20c0-0.552 0.448-1 1-1s1 0.448 1 1c0 0.552-0.448 1-1 1s-1-0.448-1-1zM24 14c0-0.552 0.448-1 1-1s1 0.448 1 1c0 0.552-0.448 1-1 1s-1-0.448-1-1z"></path>
</symbol>

<symbol id="icon-clip" viewBox="0 0 32 32">
<path d="M29.363 4.637c3.516 3.514 3.516 9.213 0 12.727l-10.967 10.968c-0.391 0.392-1.023 0.392-1.414 0-0.393-0.391-0.393-1.022 0-1.414l10.826-10.827c2.734-2.734 2.734-7.164-0.002-9.899-2.73-2.734-7.164-2.734-9.898 0l-14.447 14.277c-1.953 1.952-1.953 5.118 0 7.070 1.953 1.953 5.117 1.953 7.070 0l14.59-14.417c1.17-1.17 1.17-3.073 0-4.243s-3.072-1.169-4.242 0l-10.969 10.969c-0.391 0.391-1.023 0.391-1.414 0-0.391-0.392-0.391-1.023 0-1.415l10.968-10.968c1.951-1.952 5.117-1.952 7.070 0s1.953 5.118 0 7.071l-14.59 14.418c-2.728 2.729-7.169 2.729-9.898 0s-2.729-7.171 0-9.9l14.59-14.417c3.514-3.516 9.213-3.516 12.727 0z"></path>
</symbol>


<symbol id="icon-star" viewBox="0 0 32 32">
<path d="M31.881 12.557c-0.277-0.799-0.988-1.384-1.844-1.511l-8.326-1.238-3.619-7.514c-0.381-0.789-1.196-1.294-2.092-1.294s-1.711 0.505-2.092 1.294l-3.619 7.514-8.327 1.238c-0.855 0.127-1.566 0.712-1.842 1.511-0.275 0.801-0.067 1.683 0.537 2.285l6.102 6.092-1.415 8.451c-0.144 0.851 0.225 1.705 0.948 2.203 0.397 0.273 0.864 0.412 1.331 0.412 0.384 0 0.769-0.094 1.118-0.281l7.259-3.908 7.26 3.908c0.349 0.187 0.734 0.281 1.117 0.281 0.467 0 0.934-0.139 1.332-0.412 0.723-0.498 1.090-1.352 0.947-2.203l-1.416-8.451 6.104-6.092c0.603-0.603 0.81-1.485 0.537-2.285zM23.588 19.363c-0.512 0.51-0.744 1.229-0.627 1.934l1.416 8.451-7.26-3.906c-0.348-0.188-0.732-0.281-1.118-0.281-0.384 0-0.769 0.094-1.117 0.281l-7.26 3.906 1.416-8.451c0.118-0.705-0.114-1.424-0.626-1.934l-6.102-6.092 8.326-1.24c0.761-0.113 1.416-0.589 1.743-1.268l3.621-7.512 3.62 7.513c0.328 0.679 0.982 1.154 1.742 1.268l8.328 1.24-6.102 6.091z"></path>
</symbol>

<symbol id="icon-photo" viewBox="0 0 32 32">
<path d="M27 0h-22c-2.209 0-4 1.791-4 4v24c0 2.209 1.791 4 4 4h22c2.209 0 4-1.791 4-4v-24c0-2.209-1.791-4-4-4zM29 28c0 1.102-0.898 2-2 2h-22c-1.103 0-2-0.898-2-2v-24c0-1.103 0.897-2 2-2h22c1.102 0 2 0.897 2 2v24zM26 4h-20c-0.553 0-1 0.447-1 1v18c0 0.553 0.447 1 1 1h20c0.553 0 1-0.447 1-1v-18c0-0.553-0.447-1-1-1zM26 5v13.869l-3.25-3.53c-0.191-0.216-0.463-0.339-0.75-0.339s-0.561 0.123-0.75 0.339l-2.604 2.95-7.896-8.95c-0.19-0.216-0.463-0.339-0.75-0.339s-0.56 0.123-0.75 0.339l-3.25 3.748v-8.087h20zM6 14.6l4-4.6 8.646 9.801 2.762 3.199h-15.408v-8.4zM22.74 23l-3.428-3.955 2.688-3.045 4 4.379v2.621h-3.26zM20 13c1.656 0 3-1.343 3-3s-1.344-3-3-3c-1.658 0-3 1.343-3 3s1.342 3 3 3zM20 8c1.102 0 2 0.897 2 2s-0.898 2-2 2c-1.104 0-2-0.897-2-2s0.896-2 2-2z"></path>
</symbol>


<symbol id="icon-heart" viewBox="0 0 32 32">
<path d="M29.193 5.265c-3.629-3.596-9.432-3.671-13.191-0.288-3.76-3.383-9.561-3.308-13.192 0.288-3.741 3.704-3.741 9.709 0 13.415 1.069 1.059 11.053 10.941 11.053 10.941 1.183 1.172 3.096 1.172 4.278 0 0 0 10.932-10.822 11.053-10.941 3.742-3.706 3.742-9.711-0.001-13.415zM27.768 17.268l-11.053 10.941c-0.393 0.391-1.034 0.391-1.425 0l-11.053-10.941c-2.95-2.92-2.95-7.671 0-10.591 2.844-2.815 7.416-2.914 10.409-0.222l1.356 1.22 1.355-1.22c2.994-2.692 7.566-2.594 10.41 0.222 2.95 2.919 2.95 7.67 0.001 10.591zM9.253 7.501c0.277 0 0.5 0.224 0.5 0.5s-0.224 0.5-0.5 0.5h-0.001c-1.794 0-3.249 1.455-3.249 3.249v0.001c0 0.276-0.224 0.5-0.5 0.5s-0.5-0.224-0.5-0.5v0c0-2.346 1.901-4.247 4.246-4.249 0.002 0 0.002-0.001 0.004-0.001z"></path>
</symbol>

<symbol id="icon-fire" viewBox="0 0 32 32">
<path d="M22 9c-0.062 2.675-2.070 4.934-2.070 4.934 0-4.976-3.93-8.934-3.93-8.934s-0.053 2.962-2.043 5.948c-1.99-6.967-7.962-10.948-7.962-10.948 2.986 10.948-0.995 14.93-0.995 22.892 0 4.671 3.954 9.108 10 9.108 8.957 0 10.689-3.288 11.615-6.993 1.276-5.101-0.635-11.031-4.615-16.007zM24.676 24.521c-0.643 2.569-1.369 5.479-9.676 5.479-5.008 0-8-3.614-8-7.108 0-2.676 0.488-4.873 1.004-7.199 0.656-2.949 1.328-5.968 1.037-9.961 3.084 4.269 4.182 9.925 4.182 9.925s2.871-4.031 3.643-5.903c0.591 1.203 1.134 5.246 1.134 9.246 0 0 2.656-2.188 4.648-5.478 2.098 3.762 2.854 7.695 2.028 10.999zM22.432 16.795l0.186 1.035c0.416 2.318 0.183 5.058-0.592 6.982-0.078 0.195-0.266 0.313-0.463 0.313-0.063 0-0.127-0.012-0.188-0.036-0.256-0.103-0.381-0.394-0.277-0.65 0.584-1.449 0.83-3.489 0.674-5.353-1.004 1.122-2.269 2.291-4.972 3.575l-0.506 0.239-0.182-0.528c-0.362-1.050-0.727-2.111-0.885-3.59-0.541 0.853-1.035 1.613-1.865 2.743l-0.508 0.692-0.352-0.784c-0.861-1.925-1.517-3.428-2.037-4.75-0.481 1.545-0.84 3.332-0.84 6.941 0 0.276-0.225 0.5-0.5 0.5-0.277 0-0.5-0.224-0.5-0.5 0-4.709 0.625-6.523 1.285-8.444l0.52-1.51 0.479 1.35c0.515 1.451 1.193 3.050 2.152 5.212 0.632-0.893 1.056-1.565 1.568-2.376l1.518-2.378v1.709c0 1.924 0.346 3.181 0.727 4.323 2.659-1.338 3.655-2.502 4.708-3.73l0.85-0.985z"></path>
</symbol>


<symbol id="icon-calendar" viewBox="0 0 32 32">
<path d="M29.334 3h-4.334v-2c0-0.553-0.447-1-1-1s-1 0.447-1 1v2h-6v-2c0-0.553-0.448-1-1-1s-1 0.447-1 1v2h-6v-2c0-0.553-0.448-1-1-1s-1 0.447-1 1v2h-4.333c-1.473 0-2.667 1.193-2.667 2.666v23.667c0 1.473 1.194 2.667 2.667 2.667h26.667c1.473 0 2.666-1.194 2.666-2.667v-23.667c0-1.473-1.193-2.666-2.666-2.666zM30 29.333c0 0.368-0.299 0.667-0.666 0.667h-26.667c-0.368 0-0.667-0.299-0.667-0.667v-23.667c0-0.367 0.299-0.666 0.667-0.666h4.333v2c0 0.553 0.448 1 1 1s1-0.447 1-1v-2h6v2c0 0.553 0.448 1 1 1s1-0.447 1-1v-2h6v2c0 0.553 0.447 1 1 1s1-0.447 1-1v-2h4.334c0.367 0 0.666 0.299 0.666 0.666v23.667zM7 12h4v3h-4zM7 17h4v3h-4zM7 22h4v3h-4zM14 22h4v3h-4zM14 17h4v3h-4zM14 12h4v3h-4zM21 22h4v3h-4zM21 17h4v3h-4zM21 12h4v3h-4z"></path>
</symbol>

<symbol id="icon-tag" viewBox="0 0 32 32">
<path d="M31.391 13.883l-5-8c-0.73-1.169-2.012-1.88-3.391-1.88h-19c-2.209 0-4 1.791-4 4v16c0 2.209 1.791 4 4 4h19c1.379 0 2.66-0.711 3.391-1.881l5-8c0.812-1.295 0.812-2.942 0-4.239zM29.695 17.062l-5 8.002c-0.367 0.588-1.002 0.939-1.695 0.939h-19c-1.103 0-2-0.898-2-2v-16c0-1.103 0.897-2 2-2h19c0.693 0 1.328 0.352 1.695 0.939l5 8c0.403 0.645 0.403 1.477 0 2.12zM23 13.003c-1.658 0-3 1.343-3 3s1.342 3 3 3c1.656 0 3-1.344 3-3 0-1.657-1.344-3-3-3zM23 18.004c-1.105 0-2-0.896-2-2s0.895-2 2-2c1.104 0 2 0.896 2 2s-0.896 2-2 2z"></path>
</symbol>

<symbol id="icon-params" viewBox="0 0 32 32">
<path d="M8 6.021v-3.021c0-1.654-1.346-3-3-3s-3 1.346-3 3v3.021c-1.208 0.915-2 2.348-2 3.979s0.792 3.064 2 3.977v15.023c0 1.654 1.346 3 3 3s3-1.346 3-3v-15.023c1.208-0.912 2-2.346 2-3.977s-0.792-3.064-2-3.979zM4 3c0-0.553 0.447-1 1-1s1 0.447 1 1v2.1c-0.323-0.065-0.657-0.1-1-0.1s-0.677 0.035-1 0.1v-2.1zM6 29c0 0.553-0.447 1-1 1s-1-0.447-1-1v-14.102c0.323 0.067 0.657 0.102 1 0.102s0.677-0.035 1-0.102v14.102zM7.865 10.84c-0.016 0.053-0.030 0.105-0.049 0.158-0.095 0.264-0.217 0.514-0.378 0.736-0.004 0.006-0.010 0.010-0.014 0.016-0.174 0.238-0.381 0.449-0.616 0.627-0.004 0.004-0.007 0.006-0.010 0.008-0.241 0.182-0.51 0.328-0.799 0.43-0.313 0.113-0.646 0.185-0.999 0.185s-0.686-0.072-1-0.186c-0.289-0.102-0.558-0.248-0.799-0.43-0.003-0.002-0.006-0.004-0.010-0.008-0.235-0.178-0.442-0.389-0.616-0.627-0.004-0.006-0.010-0.010-0.014-0.016-0.161-0.223-0.283-0.473-0.378-0.736-0.019-0.053-0.033-0.105-0.049-0.158-0.079-0.267-0.134-0.546-0.134-0.839 0-0.295 0.055-0.574 0.135-0.842 0.016-0.053 0.030-0.105 0.049-0.156 0.094-0.264 0.216-0.514 0.378-0.738 0.004-0.006 0.010-0.010 0.014-0.016 0.174-0.236 0.381-0.449 0.616-0.627 0.004-0.002 0.007-0.006 0.010-0.008 0.24-0.179 0.509-0.326 0.798-0.429 0.314-0.112 0.647-0.184 1-0.184s0.686 0.072 1 0.184c0.289 0.104 0.558 0.25 0.799 0.43 0.003 0.002 0.006 0.006 0.010 0.008 0.235 0.178 0.442 0.391 0.616 0.627 0.004 0.006 0.010 0.010 0.014 0.016 0.161 0.223 0.283 0.473 0.377 0.737 0.019 0.051 0.034 0.103 0.049 0.156 0.080 0.268 0.135 0.547 0.135 0.842 0 0.293-0.055 0.572-0.135 0.84zM30 6.021v-3.021c0-1.654-1.346-3-3-3s-3 1.346-3 3v3.021c-1.209 0.915-2 2.348-2 3.979s0.791 3.064 2 3.977v15.023c0 1.654 1.346 3 3 3s3-1.346 3-3v-15.023c1.207-0.912 2-2.346 2-3.977s-0.793-3.064-2-3.979zM26 3c0-0.553 0.447-1 1-1s1 0.447 1 1v2.1c-0.324-0.065-0.658-0.1-1-0.1-0.344 0-0.678 0.035-1 0.1v-2.1zM28 29c0 0.553-0.447 1-1 1s-1-0.447-1-1v-14.102c0.322 0.067 0.656 0.102 1 0.102 0.342 0 0.676-0.035 1-0.102v14.102zM29.865 10.84c-0.016 0.053-0.031 0.105-0.049 0.158-0.096 0.264-0.217 0.514-0.379 0.736-0.004 0.006-0.010 0.010-0.014 0.016-0.174 0.238-0.381 0.449-0.615 0.627-0.004 0.004-0.008 0.006-0.010 0.008-0.242 0.182-0.51 0.328-0.799 0.43-0.313 0.113-0.647 0.185-0.999 0.185-0.354 0-0.686-0.072-1-0.186-0.289-0.102-0.559-0.248-0.799-0.43-0.004-0.002-0.006-0.004-0.010-0.008-0.236-0.178-0.443-0.389-0.617-0.627-0.004-0.006-0.010-0.010-0.014-0.016-0.16-0.223-0.283-0.473-0.377-0.736-0.020-0.053-0.033-0.105-0.049-0.158-0.079-0.267-0.134-0.546-0.134-0.839 0-0.295 0.055-0.574 0.135-0.842 0.016-0.053 0.029-0.105 0.049-0.156 0.094-0.264 0.217-0.514 0.377-0.738 0.004-0.006 0.010-0.010 0.014-0.016 0.174-0.236 0.381-0.449 0.617-0.627 0.004-0.002 0.006-0.006 0.010-0.008 0.24-0.18 0.51-0.326 0.799-0.43 0.313-0.111 0.645-0.183 0.999-0.183 0.352 0 0.686 0.072 1 0.184 0.289 0.104 0.557 0.25 0.799 0.43 0.002 0.002 0.006 0.006 0.010 0.008 0.234 0.178 0.441 0.391 0.615 0.627 0.004 0.006 0.010 0.010 0.014 0.016 0.162 0.225 0.283 0.475 0.379 0.738 0.018 0.051 0.033 0.104 0.049 0.156 0.079 0.267 0.134 0.546 0.134 0.841 0 0.293-0.055 0.572-0.135 0.84zM19 18.021v-15.021c0-1.654-1.346-3-3-3s-3 1.346-3 3v15.021c-1.208 0.914-2 2.348-2 3.979s0.792 3.064 2 3.977v3.023c0 1.654 1.346 3 3 3s3-1.346 3-3v-3.023c1.207-0.912 2-2.346 2-3.977s-0.793-3.064-2-3.979zM15 3c0-0.553 0.447-1 1-1s1 0.447 1 1v14.1c-0.324-0.064-0.658-0.1-1-0.1-0.343 0-0.677 0.035-1 0.1v-14.1zM17 29c0 0.553-0.447 1-1 1s-1-0.447-1-1v-2.102c0.323 0.067 0.657 0.102 1 0.102 0.342 0 0.676-0.035 1-0.102v2.102zM18.865 22.84c-0.016 0.053-0.031 0.105-0.049 0.158-0.096 0.264-0.217 0.514-0.379 0.736-0.004 0.006-0.010 0.010-0.014 0.016-0.174 0.238-0.381 0.449-0.615 0.627-0.004 0.004-0.008 0.006-0.010 0.008-0.242 0.182-0.51 0.328-0.799 0.43-0.313 0.113-0.647 0.185-0.999 0.185s-0.686-0.072-1-0.186c-0.289-0.102-0.558-0.248-0.799-0.43-0.003-0.002-0.006-0.004-0.010-0.008-0.235-0.178-0.442-0.389-0.616-0.627-0.004-0.006-0.010-0.010-0.014-0.016-0.161-0.223-0.283-0.473-0.378-0.736-0.019-0.053-0.033-0.105-0.049-0.158-0.079-0.267-0.134-0.546-0.134-0.839 0-0.295 0.055-0.574 0.135-0.842 0.016-0.053 0.030-0.105 0.049-0.156 0.095-0.264 0.217-0.514 0.378-0.738 0.004-0.006 0.010-0.010 0.014-0.016 0.174-0.236 0.381-0.449 0.616-0.627 0.004-0.002 0.007-0.006 0.010-0.008 0.241-0.18 0.51-0.326 0.799-0.43 0.313-0.111 0.646-0.183 0.999-0.183 0.352 0 0.686 0.072 1 0.184 0.289 0.104 0.557 0.25 0.799 0.43 0.002 0.002 0.006 0.006 0.010 0.008 0.234 0.178 0.441 0.391 0.615 0.627 0.004 0.006 0.010 0.010 0.014 0.016 0.162 0.225 0.283 0.475 0.379 0.738 0.018 0.051 0.033 0.104 0.049 0.156 0.079 0.267 0.134 0.546 0.134 0.841 0 0.293-0.055 0.572-0.135 0.84z"></path>
</symbol>

<symbol id="icon-bubble" viewBox="0 0 32 32">
<path d="M16 7c0.276 0 0.5 0.224 0.5 0.5s-0.225 0.5-0.5 0.5c-5.327 0-10 2.804-10 6 0 0.276-0.224 0.5-0.5 0.5s-0.5-0.224-0.5-0.5c0-3.794 5.037-7 11-7zM16 2c-8.837 0-16 5.373-16 12 0 4.127 2.779 7.766 7.008 9.926 0 0.027-0.008 0.045-0.008 0.074 0 1.793-1.339 3.723-1.928 4.736 0.001 0 0.002 0 0.002 0-0.047 0.11-0.074 0.231-0.074 0.358 0 0.5 0.405 0.906 0.906 0.906 0.094 0 0.259-0.025 0.255-0.014 3.125-0.512 6.069-3.383 6.753-4.215 0.999 0.147 2.029 0.229 3.086 0.229 8.835 0 16-5.373 16-12s-7.164-12-16-12zM16 24c-0.917 0-1.858-0.070-2.796-0.207-0.097-0.016-0.194-0.021-0.29-0.021-0.594 0-1.163 0.264-1.546 0.73-0.428 0.521-1.646 1.684-3.085 2.539 0.39-0.895 0.695-1.898 0.716-2.932 0.006-0.064 0.009-0.129 0.009-0.184 0-0.752-0.421-1.439-1.090-1.781-3.706-1.892-5.918-4.937-5.918-8.144 0-5.514 6.28-10 14-10 7.718 0 14 4.486 14 10s-6.281 10-14 10z"></path>
</symbol>


<symbol id="icon-times-circle" viewBox="0 0 24 28">
<path d="M17.953 17.531c0-0.266-0.109-0.516-0.297-0.703l-2.828-2.828 2.828-2.828c0.187-0.187 0.297-0.438 0.297-0.703s-0.109-0.531-0.297-0.719l-1.406-1.406c-0.187-0.187-0.453-0.297-0.719-0.297s-0.516 0.109-0.703 0.297l-2.828 2.828-2.828-2.828c-0.187-0.187-0.438-0.297-0.703-0.297s-0.531 0.109-0.719 0.297l-1.406 1.406c-0.187 0.187-0.297 0.453-0.297 0.719s0.109 0.516 0.297 0.703l2.828 2.828-2.828 2.828c-0.187 0.187-0.297 0.438-0.297 0.703s0.109 0.531 0.297 0.719l1.406 1.406c0.187 0.187 0.453 0.297 0.719 0.297s0.516-0.109 0.703-0.297l2.828-2.828 2.828 2.828c0.187 0.187 0.438 0.297 0.703 0.297s0.531-0.109 0.719-0.297l1.406-1.406c0.187-0.187 0.297-0.453 0.297-0.719zM24 14c0 6.625-5.375 12-12 12s-12-5.375-12-12 5.375-12 12-12 12 5.375 12 12z"></path>
</symbol>

<symbol id="icon-check-circle" viewBox="0 0 24 28">
<path d="M20.062 11.469c0-0.266-0.094-0.531-0.281-0.719l-1.422-1.406c-0.187-0.187-0.438-0.297-0.703-0.297s-0.516 0.109-0.703 0.297l-6.375 6.359-3.531-3.531c-0.187-0.187-0.438-0.297-0.703-0.297s-0.516 0.109-0.703 0.297l-1.422 1.406c-0.187 0.187-0.281 0.453-0.281 0.719s0.094 0.516 0.281 0.703l5.656 5.656c0.187 0.187 0.453 0.297 0.703 0.297 0.266 0 0.531-0.109 0.719-0.297l8.484-8.484c0.187-0.187 0.281-0.438 0.281-0.703zM24 14c0 6.625-5.375 12-12 12s-12-5.375-12-12 5.375-12 12-12 12 5.375 12 12z"></path>
</symbol>


<symbol id="icon-hourglass" viewBox="0 0 32 32">
<path d="M24.5 28c0.275 0 0.5 0.224 0.5 0.5s0 1.5 0 1.5h-19c0 0 0-1.224 0-1.5s0.224-0.5 0.5-0.5h1.67c0.083-6.658 4.432-8.804 4.432-11.495 0-2.705-4.429-2.885-4.471-11.505h-1.631c-0.276 0-0.5-0.224-0.5-0.5s0-1.5 0-1.5h19c0 0 0 1.224 0 1.5s-0.225 0.5-0.5 0.5h-1.53c-0.042 8.62-4.471 8.8-4.471 11.505 0 2.691 4.35 4.837 4.433 11.495h1.568zM17.111 16.505c0-2.716 4.43-2.885 4.471-11.505h-12.063c0.041 8.62 4.471 8.789 4.471 11.505 0 2.611-4.351 4.812-4.433 11.495h0.758c0.178-0.593 0.769-1.306 1.79-1.834l1.327-0.677c0.834-0.431 1.334-0.722 1.5-0.872s0.354-0.486 0.564-1.008c0.221 0.521 0.41 0.857 0.57 1.008s0.654 0.441 1.484 0.872l1.32 0.677c1.015 0.528 1.604 1.241 1.779 1.834h0.894c-0.082-6.683-4.432-8.884-4.432-11.495zM16.070 15.037c-0.12 0.236-0.221 0.685-0.301 1.347-0.020 0.2-0.064 0.501-0.135 0.902-0.070-0.401-0.115-0.702-0.135-0.902-0.081-0.662-0.182-1.11-0.303-1.347-0.121-0.235-0.462-0.658-1.025-1.271l-1.251-1.368c-0.855-0.922-1.403-1.584-1.644-1.984 1.484 0.945 2.933 1.418 4.347 1.418s2.868-0.473 4.362-1.418c-0.25 0.4-0.8 1.062-1.649 1.984l-1.246 1.368c-0.56 0.613-0.901 1.036-1.020 1.271z"></path>
</symbol>

<symbol id="icon-home" viewBox="0 0 32 32">
<path d="M32 18.451l-16-12.42-16 12.42v-5.064l16-12.42 16 12.42zM28 18v12h-8v-8h-8v8h-8v-12l12-9z"></path>
</symbol>


</defs>
</svg>
